<svg xmlns="http://www.w3.org/2000/svg" viewBox="0 0 192 192">
  <rect width="192" height="192" rx="36" fill="#a0c898"/>
  <rect x="22" y="44" width="148" height="104" rx="10" fill="#f4ebd6" stroke="#786858" stroke-width="3"/>
  <rect x="22" y="88" width="148" height="6" fill="#786858"/>
  <g stroke="#786858" stroke-width="2.5" stroke-linecap="round">
    <line x1="60"  y1="44" x2="60"  y2="148"/>
    <line x1="96"  y1="44" x2="96"  y2="148"/>
    <line x1="132" y1="44" x2="132" y2="148"/>
  </g>
  <g fill="#4e7848" stroke="#2c2a26" stroke-width="1.4">
    <ellipse cx="60"  cy="68" rx="16" ry="8"/>
    <ellipse cx="96"  cy="80" rx="16" ry="8"/>
    <ellipse cx="132" cy="68" rx="16" ry="8"/>
  </g>
  <g fill="#4e7848" stroke="#2c2a26" stroke-width="1.4">
    <ellipse cx="60"  cy="106" rx="16" ry="7"/>
    <ellipse cx="60"  cy="120" rx="16" ry="7"/>
    <ellipse cx="60"  cy="134" rx="16" ry="7"/>

    <ellipse cx="96"  cy="120" rx="16" ry="7"/>
    <ellipse cx="96"  cy="134" rx="16" ry="7"/>

    <ellipse cx="132" cy="106" rx="16" ry="7"/>
    <ellipse cx="132" cy="120" rx="16" ry="7"/>
  </g>
</svg>
